<svg xmlns="http://www.w3.org/2000/svg" width="1276" height="1276" viewBox="0 0 1276 1276">
  <g id="Group_33" data-name="Group 33" transform="translate(-41 -1434)">
    <g id="Rectangle_14" data-name="Rectangle 14" transform="translate(41 1434)" fill="#212b36" stroke="#707070" stroke-width="1">
      <rect width="1276" height="1276" rx="638" stroke="none"/>
      <rect x="0.5" y="0.5" width="1275" height="1275" rx="637.5" fill="none"/>
    </g>
    <g id="Group_32" data-name="Group 32" transform="translate(213.256 -133.622)">
      <path id="Path_3" data-name="Path 3" d="M-15.014-275.8l-157.922-91.589V-508L250.057-256.939s-18.535,21.605-27.1,51.343-7.154,67.608-7.154,67.608L101.1-205.6l-.226,347.373-115.885,78.6Z" transform="translate(206 2291)" fill="#4f39f6"/>
      <path id="Path_4" data-name="Path 4" d="M-65.974-131.786s-159.453-51.29-181.479-62.2-53.132-31.413-62.993-79.8-1.359-77.624,23.55-113.764,71.983-44.983,86.1-46.239,321.219,0,321.219,0L27.137-315.531H-127.881s-67.062-1.059-71.042,7.452,55.122,26.591,55.122,26.591l74.4,24.064L-3.11-233.545s65.308,20.161,77.16,78.139c2.074,10.146,10.688,41.031,0,74.635S58.14-36.208,31.3-14.832c-32.758,26.087-64.287,26-78.312,26.283s-338.234,0-338.234,0l89.256-116.957,226.593-.783s31.745-1.364,32.6-7.738S-65.974-131.786-65.974-131.786Z" transform="translate(778 2442)" fill="#4f39f6"/>
      <path id="Path_5" data-name="Path 5" d="M0-.894S21.492-16.641,40.362-27.928A312.022,312.022,0,0,1,75.477-46.043l2.508,32.05A245.9,245.9,0,0,0,54.3-.894C42.034,6.84,28.935,16.942,28.935,16.942Z" transform="translate(263 1869)" fill="#4f39f6"/>
      <path id="Path_6" data-name="Path 6" d="M59.218-30.84S150.582-42.746,244.311,5.3,390.44,140.53,390.44,140.53H355.347s-30.378-47.158-97.73-91.9S130.5.588,130.5.588l73.6,90.929s22.428-6.06,37.1,11.585,6.431,39.578,6.431,39.578H182.01s-5.123-4.772-4.463-17.965,7.431-19.8,7.431-19.8Z" transform="translate(384 1823)" fill="#4f39f6"/>
      <path id="Path_7" data-name="Path 7" d="M9.233-81.54l88.79,67.547S95.235,31.381,54.545,36.955,8.853,11.392,7.724,3.069,9.233-81.54,9.233-81.54Z" transform="translate(355 1840)" fill="#4f39f6"/>
      <path id="Path_8" data-name="Path 8" d="M.929,121.485s88.859-68.331,88.7-73.917.549-43.79-41.309-49.4S1.45,26.407.289,34.787.929,121.485.929,121.485Z" transform="matrix(1, -0.017, 0.017, 1, 357.756, 2531.317)" fill="#4f39f6"/>
      <path id="Path_9" data-name="Path 9" d="M-73.643,101.575s59.356,14.443,154.161-19.413S210.641-2.9,210.641-2.9L166.99-3.657S147.91,20.288,87.665,46.413s-95.54,24.06-95.54,24.06S11.689,49.888,25.61,30.836a251.938,251.938,0,0,0,22.2-36.573L20.278-6.218a390.433,390.433,0,0,1-37.666,50.8C-40.868,71.528-73.643,101.575-73.643,101.575Z" transform="matrix(1, -0.017, 0.017, 1, 520.756, 2502.317)" fill="#4f39f6"/>
    </g>
  </g>
</svg>
